<?xml version="1.0" standalone="no"?>
<!DOCTYPE svg PUBLIC "-//W3C//DTD SVG 20010904//EN"
 "http://www.w3.org/TR/2001/REC-SVG-20010904/DTD/svg10.dtd">
<svg version="1.0" xmlns="http://www.w3.org/2000/svg"
 width="200.000000pt" height="200.000000pt" viewBox="0 0 200.000000 200.000000"
 preserveAspectRatio="xMidYMid meet">

<g transform="translate(0.000000,200.000000) scale(0.100000,-0.100000)"
fill="#000000" stroke="none">
<path d="M0 1000 l0 -1000 1000 0 1000 0 0 1000 0 1000 -1000 0 -1000 0 0
-1000z m1622 623 l3 -306 -57 -55 c-32 -30 -55 -58 -53 -62 3 -4 -47 -58 -110
-119 l-115 -111 -370 0 -370 0 0 -35 0 -35 334 0 335 0 -48 -47 -47 -48 46 40
45 40 -50 -53 -49 -52 -283 0 -283 0 0 -35 0 -35 240 0 c132 0 240 -2 240 -5
0 -3 -31 -35 -70 -71 -38 -37 -68 -70 -65 -74 3 -5 1 -11 -5 -15 -6 -4 -8 -11
-5 -16 4 -5 1 -9 -5 -9 -6 0 -8 -4 -5 -10 3 -5 1 -10 -5 -10 -6 0 -8 -4 -5
-10 3 -5 1 -10 -5 -10 -6 0 -9 -4 -5 -9 3 -5 1 -12 -5 -16 -6 -4 -8 -11 -5
-16 4 -5 1 -9 -5 -9 -6 0 -8 -4 -5 -10 3 -5 1 -10 -5 -10 -6 0 -8 -4 -5 -10 3
-6 1 -10 -5 -10 -6 0 -9 -4 -5 -9 3 -5 1 -12 -5 -16 -6 -4 -8 -11 -5 -16 4 -5
1 -9 -5 -9 -6 0 -8 -4 -5 -10 3 -5 1 -10 -5 -10 -6 0 -8 -4 -5 -10 3 -5 1 -10
-5 -10 -6 0 -9 -4 -5 -9 3 -5 1 -12 -5 -16 -6 -4 -8 -11 -5 -16 4 -5 1 -9 -5
-9 -6 0 -8 -4 -5 -10 3 -5 1 -10 -5 -10 -6 0 -8 -5 -5 -10 3 -6 1 -10 -6 -10
-7 0 -9 -3 -6 -7 4 -3 2 -12 -3 -18 -8 -9 -6 -14 5 -19 8 -3 15 -1 15 5 0 6 5
7 10 4 6 -3 10 -1 10 5 0 6 5 8 10 5 6 -3 10 -1 10 5 0 6 5 8 10 5 6 -3 10 -1
10 5 0 6 5 8 10 5 6 -3 10 -1 10 5 0 6 5 8 10 5 6 -3 10 -1 10 5 0 6 5 8 10 5
6 -3 10 -1 10 5 0 6 5 8 10 5 6 -3 10 -1 10 5 0 6 5 8 10 5 6 -3 10 -1 10 5 0
6 5 8 10 5 6 -3 10 -1 10 5 0 7 7 10 15 6 8 -3 15 -1 15 5 0 6 5 7 10 4 6 -3
10 -1 10 5 0 6 5 8 10 5 6 -3 10 -1 10 5 0 6 5 8 10 5 6 -3 10 -1 10 5 0 6 5
8 10 5 6 -3 10 -1 10 5 0 6 5 8 10 5 6 -3 10 -1 10 5 0 6 5 8 10 5 6 -3 10 -1
10 5 0 6 5 8 10 5 6 -3 10 -1 10 6 0 7 3 10 6 6 7 -7 234 212 231 224 -1 5 61
70 138 145 77 75 128 126 113 114 -40 -34 -34 -20 9 21 20 18 33 28 29 22 -4
-7 -7 -190 -6 -408 l0 -395 -746 -2 -746 -3 4 58 c2 31 3 57 1 57 -2 0 -12 -6
-23 -13 -17 -10 -22 -9 -29 1 -4 8 -12 14 -16 15 -12 3 -13 47 -1 54 5 4 6 0
2 -8 -4 -8 -1 -6 7 3 8 10 17 15 20 12 3 -3 12 -2 19 2 7 5 18 9 23 9 6 0 10
5 10 10 0 6 -4 9 -8 7 -4 -1 -7 20 -6 48 2 48 11 62 24 40 9 -15 25 -12 25 5
0 8 5 15 10 15 6 0 10 -5 10 -11 0 -8 5 -7 15 1 13 11 14 10 9 -4 -3 -9 -1
-16 5 -16 6 0 11 5 11 10 0 6 7 10 15 10 8 0 15 -4 15 -10 0 -5 5 -10 11 -10
6 0 8 7 5 16 -3 8 -2 13 2 10 4 -2 16 3 27 11 15 12 16 14 3 10 -12 -4 -15 -2
-12 8 3 8 11 13 17 12 7 -1 12 7 12 18 0 12 -6 19 -14 17 -11 -2 -12 0 -3 11
10 11 9 17 -5 28 -15 12 -16 12 -10 -4 4 -11 3 -16 -3 -12 -6 3 -10 14 -10 23
0 15 -2 15 -10 2 -8 -13 -10 -12 -10 3 0 12 -6 17 -17 15 -10 -2 -17 -10 -15
-18 2 -11 0 -11 -11 -1 -12 9 -16 8 -21 -4 -4 -11 -2 -14 7 -9 8 5 7 2 -2 -9
-15 -18 -26 -23 -16 -7 3 5 -1 10 -9 10 -9 0 -16 -7 -16 -16 0 -13 -3 -14 -13
-5 -8 6 -17 7 -21 3 -4 -4 -6 16 -5 43 l3 50 -39 0 c-35 0 -39 3 -39 25 0 33
11 50 28 44 8 -3 17 0 21 6 4 6 15 8 26 5 11 -4 19 -2 19 4 0 6 -5 11 -10 11
-7 0 -10 20 -9 50 2 27 6 50 11 50 4 0 8 -5 8 -11 0 -6 6 -9 13 -6 6 2 11 10
10 16 -2 6 2 11 7 11 6 0 10 -4 10 -10 0 -14 27 -12 33 3 4 7 6 6 6 -4 1 -20
51 -23 51 -4 0 7 8 19 18 26 14 11 15 11 4 -1 -19 -22 -14 -32 6 -12 13 12 16
21 9 30 -8 10 -6 12 4 10 8 -2 14 5 14 17 0 13 -6 19 -15 17 -12 -3 -12 -1 -3
9 19 19 -14 54 -34 37 -11 -9 -13 -8 -11 3 5 23 -39 23 -45 -1 -3 -11 -11 -19
-19 -18 -7 2 -12 -3 -10 -11 3 -12 0 -12 -12 -1 -15 11 -20 7 -17 -12 1 -10
-11 -10 -27 1 -8 5 -12 23 -10 47 2 31 7 38 20 36 11 -2 18 3 18 13 0 16 -12
20 -24 8 -10 -10 -76 -10 -76 0 0 5 -4 6 -8 3 -10 -6 -8 36 2 52 4 7 11 10 16
7 5 -3 12 -1 15 5 4 6 15 8 25 5 16 -5 18 -1 14 37 -3 24 -7 51 -9 61 -2 9 1
17 6 17 5 0 9 -5 9 -11 0 -6 6 -9 13 -6 6 2 11 10 9 16 -3 14 15 15 23 1 10
-17 38 -12 31 6 -3 8 -2 12 4 9 6 -3 10 -13 10 -21 0 -8 10 -14 26 -14 21 0
25 4 19 18 -5 13 -4 14 6 5 19 -19 54 14 37 34 -9 11 -8 13 3 11 8 -2 14 5 14
17 0 12 -6 19 -14 17 -10 -2 -12 0 -4 10 7 9 4 18 -9 30 -20 20 -25 10 -5 -12
10 -12 9 -12 -5 -1 -10 7 -18 19 -18 27 0 8 -10 11 -27 9 -16 -1 -27 -8 -26
-13 2 -6 -6 -9 -16 -7 -15 3 -19 -1 -16 -16 2 -10 0 -19 -6 -19 -5 0 -9 5 -9
11 0 6 -6 9 -12 6 -7 -2 -12 -10 -10 -17 1 -6 -3 -10 -10 -8 -8 3 -14 24 -16
51 -3 39 0 46 12 41 11 -4 16 0 16 10 0 17 -12 21 -24 9 -4 -5 -21 -8 -37 -8
-22 0 -31 6 -38 25 -8 25 9 57 23 43 3 -4 6 -1 6 5 0 7 10 11 23 9 21 -2 22 1
18 48 -2 28 -8 53 -15 57 -8 6 -8 8 1 8 6 0 15 -5 18 -10 4 -6 11 -8 16 -4 5
3 7 10 4 15 -4 5 -2 9 4 9 5 0 13 -4 16 -10 9 -15 25 -12 25 5 0 8 4 15 10 15
5 0 6 -8 3 -17 -6 -16 -5 -16 11 -4 14 12 17 12 14 1 -2 -8 5 -16 15 -18 11
-2 17 3 17 14 0 14 3 15 12 6 17 -17 53 15 37 35 -9 10 -8 13 6 13 10 0 15 6
13 18 -2 9 -9 16 -15 15 -6 -1 -14 4 -17 12 -3 10 0 12 12 8 9 -4 4 5 -12 20
-19 18 -33 24 -39 18 -7 -7 -17 -6 -30 1 -17 9 -19 8 -13 -7 5 -14 4 -16 -7
-6 -11 9 -17 7 -28 -6 -13 -17 -13 -17 5 -3 18 14 19 14 6 -7 -10 -15 -18 -19
-26 -12 -6 5 -19 7 -28 3 -13 -5 -16 1 -16 35 0 37 -2 41 -26 41 -28 0 -49 17
-49 40 0 16 35 47 49 42 4 -1 14 2 21 8 7 6 20 7 30 4 13 -5 16 -3 13 7 -3 8
-13 13 -22 13 -13 -2 -16 9 -16 62 l0 64 745 0 745 0 2 -307z m242 -248 l41
-41 -35 41 c-28 32 -23 29 20 -13 66 -62 71 -90 25 -136 -25 -25 -26 -27 -3
-7 41 36 34 21 -9 -20 -20 -18 -34 -29 -31 -24 7 16 -109 119 -118 104 -5 -8
-3 -10 6 -4 9 6 11 4 5 -5 -6 -9 -4 -11 5 -5 9 6 11 4 5 -5 -6 -9 -4 -11 5 -5
9 6 11 4 5 -5 -6 -9 -4 -11 5 -5 9 6 11 4 5 -5 -6 -9 -4 -11 5 -5 9 5 11 4 6
-4 -4 -6 -4 -10 1 -9 4 2 8 0 8 -4 0 -3 11 -18 25 -33 l24 -26 -64 -62 -64
-62 58 63 59 64 -81 81 -82 82 -63 -60 c-34 -33 -15 -12 42 46 121 122 132
126 195 64z m-414 -298 c0 -1 -44 -45 -97 -97 l-98 -95 95 98 c88 90 100 102
100 94z m180 -160 c0 -1 -46 -47 -102 -102 l-103 -100 100 103 c93 95 105 107
105 99z m-1550 -101 c0 -2 -8 -10 -17 -17 -16 -13 -17 -12 -4 4 13 16 21 21
21 13z m1070 -49 c0 -1 -48 -50 -107 -107 l-108 -105 105 108 c97 99 110 112
110 104z m180 -160 c0 -1 -46 -47 -102 -102 l-103 -100 100 103 c93 95 105
107 105 99z m0 -40 c0 -2 -17 -19 -37 -38 l-38 -34 34 38 c33 34 41 42 41 34z
m-360 -21 c0 -3 -4 -8 -10 -11 -5 -3 -10 -1 -10 4 0 6 5 11 10 11 6 0 10 -2
10 -4z m-13 -32 c-3 -3 -12 -4 -19 -1 -8 3 -5 6 6 6 11 1 17 -2 13 -5z m78
-54 c-3 -5 -11 -10 -16 -10 -6 0 -7 5 -4 10 3 6 11 10 16 10 6 0 7 -4 4 -10z
m-5 -26 c0 -2 -9 -4 -20 -4 -11 0 -20 4 -20 9 0 5 9 7 20 4 11 -3 20 -7 20 -9z
m70 -54 c-6 -11 -12 -20 -14 -20 -2 0 -2 9 1 20 3 11 9 20 15 20 5 0 4 -9 -2
-20z m-209 -57 c13 -16 12 -17 -3 -4 -10 7 -18 15 -18 17 0 8 8 3 21 -13z
m-96 -93 c3 -5 1 -10 -4 -10 -6 0 -11 5 -11 10 0 6 2 10 4 10 3 0 8 -4 11 -10z"/>
<path d="M220 1840 c0 -6 -4 -9 -9 -6 -12 8 -34 -21 -26 -34 3 -6 11 -8 16 -4
5 3 6 10 3 16 -4 6 -2 8 3 5 6 -4 16 0 22 7 8 10 9 16 1 21 -5 3 -10 1 -10 -5z"/>
<path d="M270 1834 c0 -8 4 -13 9 -10 5 3 11 -1 15 -9 3 -8 12 -15 20 -15 11
0 8 7 -10 25 -29 29 -34 31 -34 9z"/>
<path d="M317 1783 c-13 -12 -7 -33 8 -33 8 0 15 9 15 20 0 20 -11 26 -23 13z"/>
<path d="M290 1725 c-6 -8 -10 -20 -7 -27 3 -7 6 -4 6 7 1 15 3 17 10 6 6 -9
11 -10 15 -2 4 6 1 11 -6 11 -9 0 -9 3 2 10 8 5 10 10 4 10 -6 0 -17 -7 -24
-15z"/>
<path d="M554 1726 c-3 -8 -4 -27 -2 -43 l3 -28 410 -3 410 -2 0 45 0 45 -408
0 c-342 0 -408 -2 -413 -14z"/>
<path d="M172 1711 c4 -13 18 -16 19 -4 0 4 -5 9 -11 12 -7 2 -11 -2 -8 -8z"/>
<path d="M217 1713 c-4 -3 -7 -11 -7 -17 0 -6 5 -5 12 2 6 6 9 14 7 17 -3 3
-9 2 -12 -2z"/>
<path d="M132 1701 c4 -13 18 -16 19 -4 0 4 -5 9 -11 12 -7 2 -11 -2 -8 -8z"/>
<path d="M246 1701 c-4 -5 -2 -12 3 -15 5 -4 12 -2 15 3 4 5 2 12 -3 15 -5 4
-12 2 -15 -3z"/>
<path d="M557 1543 c-4 -3 -7 -21 -7 -39 l0 -34 413 -2 412 -3 0 43 0 42 -406
0 c-223 0 -409 -3 -412 -7z"/>
<path d="M223 1457 c4 -14 57 -16 57 -2 0 5 -14 10 -30 11 -17 1 -29 -3 -27
-9z"/>
<path d="M199 1460 c0 -3 -3 -16 -5 -30 -4 -24 -4 -24 13 -8 13 14 15 21 5 30
-7 7 -12 10 -13 8z"/>
<path d="M290 1451 c0 -10 29 -36 34 -30 1 2 -6 12 -16 22 -10 9 -18 13 -18 8z"/>
<path d="M150 1415 c0 -9 5 -15 11 -13 6 2 11 8 11 13 0 5 -5 11 -11 13 -6 2
-11 -4 -11 -13z"/>
<path d="M314 1397 c-3 -9 -3 -21 1 -27 3 -5 1 -10 -4 -10 -6 0 -10 -6 -8 -12
1 -7 -4 -12 -10 -10 -7 1 -13 -2 -13 -6 0 -9 -47 -8 -79 3 -15 5 -21 2 -21 -9
0 -11 7 -15 23 -12 12 2 28 -1 34 -6 7 -6 20 -8 28 -4 8 3 19 6 23 6 10 2 41
31 40 39 -1 3 2 14 7 24 4 11 3 23 -3 29 -8 8 -13 7 -18 -5z"/>
<path d="M557 1353 c-4 -3 -7 -21 -7 -39 l0 -34 413 -2 412 -3 0 43 0 42 -406
0 c-223 0 -409 -3 -412 -7z"/>
<path d="M1465 1158 l-40 -43 43 40 c39 36 47 45 39 45 -2 0 -21 -19 -42 -42z"/>
<path d="M557 1163 c-4 -3 -7 -21 -7 -39 l0 -34 413 -2 412 -3 0 43 0 42 -406
0 c-223 0 -409 -3 -412 -7z"/>
<path d="M230 1074 c0 -10 7 -14 22 -12 32 5 35 28 4 28 -17 0 -26 -5 -26 -16z"/>
<path d="M203 1060 c-8 -11 -19 -17 -28 -14 -10 4 -15 0 -15 -10 0 -9 3 -16 8
-16 15 1 54 38 51 49 -2 6 -9 3 -16 -9z"/>
<path d="M290 1072 c0 -6 5 -14 10 -17 6 -4 8 -11 5 -16 -4 -5 -3 -9 2 -9 4 0
8 -11 8 -25 0 -14 -4 -25 -8 -25 -5 0 -6 -4 -2 -9 3 -5 1 -12 -5 -16 -5 -3
-10 -11 -10 -16 0 -10 34 19 36 30 0 3 4 14 8 24 5 10 3 23 -3 31 -6 7 -9 15
-6 18 3 3 -4 13 -15 23 -11 10 -20 13 -20 7z"/>
<path d="M190 945 c0 -8 7 -15 15 -15 8 0 15 7 15 15 0 8 -7 15 -15 15 -8 0
-15 -7 -15 -15z"/>
<path d="M230 935 c0 -9 9 -15 25 -15 16 0 25 6 25 15 0 9 -9 15 -25 15 -16 0
-25 -6 -25 -15z"/>
<path d="M232 698 c-7 -7 -12 -8 -12 -3 0 5 -7 -1 -16 -13 -8 -12 -19 -20 -24
-17 -5 3 -11 1 -14 -4 -13 -21 16 -21 32 -1 17 21 82 35 82 18 0 -4 6 -7 13
-5 6 1 11 -4 10 -10 -2 -7 1 -13 6 -13 5 0 7 -8 4 -19 -3 -10 0 -22 6 -26 16
-10 25 23 11 40 -7 8 -9 15 -5 15 5 0 0 9 -10 20 -10 11 -21 17 -26 15 -4 -3
-10 -1 -14 5 -8 14 -28 13 -43 -2z"/>
<path d="M298 577 c-7 -7 -26 -13 -42 -13 -16 0 -31 -5 -33 -11 -7 -19 64 -6
86 16 12 12 17 21 12 21 -5 0 -16 -6 -23 -13z"/>
<path d="M195 571 c-6 -11 9 -23 19 -14 9 9 7 23 -3 23 -6 0 -12 -4 -16 -9z"/>
<path d="M152 561 c2 -7 7 -12 11 -12 12 1 9 15 -3 20 -7 2 -11 -2 -8 -8z"/>
<path d="M246 321 c-4 -5 -2 -12 3 -15 5 -4 12 -2 15 3 4 5 2 12 -3 15 -5 4
-12 2 -15 -3z"/>
<path d="M191 296 c-11 -12 -18 -26 -14 -29 12 -12 21 -7 26 14 3 12 10 18 16
14 6 -3 11 -2 11 4 0 21 -18 20 -39 -3z"/>
<path d="M281 309 c-1 -21 24 -43 41 -36 7 3 4 6 -7 6 -15 1 -17 3 -6 10 9 6
10 11 2 15 -6 4 -11 1 -12 -6 0 -7 -4 -4 -9 7 -7 15 -9 16 -9 4z"/>
<path d="M312 243 c5 -25 28 -28 28 -4 0 12 -6 21 -16 21 -9 0 -14 -7 -12 -17z"/>
<path d="M294 195 c-4 -8 -10 -12 -15 -9 -5 3 -9 1 -9 -5 0 -17 18 -21 24 -5
3 8 11 12 17 8 7 -4 9 -3 5 4 -3 5 0 13 6 15 8 3 6 6 -5 6 -10 1 -20 -6 -23
-14z"/>
<path d="M206 192 c-5 -9 20 -32 28 -25 3 4 6 10 6 14 0 10 -28 20 -34 11z"/>
<path d="M160 175 c0 -9 5 -15 11 -13 6 2 11 8 11 13 0 5 -5 11 -11 13 -6 2
-11 -4 -11 -13z"/>
<path d="M1720 1305 c13 -14 26 -25 28 -25 3 0 -5 11 -18 25 -13 14 -26 25
-28 25 -3 0 5 -11 18 -25z"/>
</g>
</svg>
